<svg width="16" height="16" viewBox="0 0 16 16" fill="none" xmlns="http://www.w3.org/2000/svg">
<g id="icn settings icn-xs" clip-path="url(#clip0_1_1904)">
<path id="Vector" d="M11.7427 10.3439C12.7109 9.02254 13.1446 7.38435 12.957 5.75701C12.7693 4.12966 11.9741 2.63319 10.7304 1.56699C9.48677 0.500777 7.8864 -0.0565401 6.24949 0.00653307C4.61258 0.0696062 3.05984 0.748418 1.90192 1.90716C0.744005 3.06591 0.0663042 4.61913 0.00440239 6.25609C-0.0574994 7.89305 0.500963 9.49302 1.56806 10.7359C2.63516 11.9788 4.1322 12.7729 5.75967 12.9594C7.38715 13.146 9.02503 12.7111 10.3457 11.7419H10.3447C10.3747 11.7819 10.4067 11.8199 10.4427 11.8569L14.2927 15.7069C14.4802 15.8945 14.7345 16 14.9998 16.0001C15.2651 16.0002 15.5195 15.8949 15.7072 15.7074C15.8948 15.5198 16.0003 15.2655 16.0004 15.0002C16.0005 14.7349 15.8952 14.4805 15.7077 14.2929L11.8577 10.4429C11.8219 10.4067 11.7835 10.3732 11.7427 10.3429V10.3439ZM12.0007 6.49986C12.0007 7.22213 11.8584 7.93732 11.582 8.60462C11.3056 9.27191 10.9005 9.87822 10.3897 10.3889C9.87902 10.8997 9.2727 11.3048 8.60541 11.5812C7.93812 11.8576 7.22292 11.9999 6.50065 11.9999C5.77838 11.9999 5.06319 11.8576 4.3959 11.5812C3.7286 11.3048 3.12229 10.8997 2.61157 10.3889C2.10084 9.87822 1.69572 9.27191 1.41932 8.60462C1.14292 7.93732 1.00065 7.22213 1.00065 6.49986C1.00065 5.04117 1.58012 3.64222 2.61157 2.61077C3.64302 1.57932 5.04196 0.999856 6.50065 0.999856C7.95934 0.999856 9.35829 1.57932 10.3897 2.61077C11.4212 3.64222 12.0007 5.04117 12.0007 6.49986Z" fill="white"/>
</g>
<defs>
<clipPath id="clip0_1_1904">
<rect width="16.0006" height="16.0003" fill="white" transform="translate(-0.000244141 -0.000244141)"/>
</clipPath>
</defs>
</svg>
